<svg width="24" height="24" viewBox="0 0 24 24" fill="none" xmlns="http://www.w3.org/2000/svg">
<path d="M22.5 9H19.5C19.5 8.80109 19.421 8.61032 19.2803 8.46967C19.1397 8.32902 18.9489 8.25 18.75 8.25H12.75C12.5511 8.25 12.3603 8.32902 12.2197 8.46967C12.079 8.61032 12 8.80109 12 9H6V4.875C6 4.57663 6.11853 4.29048 6.3295 4.0795C6.54048 3.86853 6.82663 3.75 7.125 3.75C7.38867 3.74892 7.64493 3.83723 7.85196 4.0005C8.059 4.16378 8.2046 4.3924 8.265 4.64906C8.3062 4.84234 8.42202 5.01155 8.58729 5.11991C8.75255 5.22827 8.95391 5.26702 9.14759 5.22774C9.34127 5.18846 9.51162 5.07433 9.62162 4.91014C9.73161 4.74596 9.77236 4.545 9.735 4.35094C9.60766 3.75414 9.27862 3.21942 8.80326 2.83677C8.3279 2.45412 7.73523 2.24691 7.125 2.25C6.42881 2.25 5.76113 2.52656 5.26884 3.01884C4.77656 3.51113 4.5 4.17881 4.5 4.875V9H1.5C1.30109 9 1.11032 9.07902 0.96967 9.21967C0.829018 9.36032 0.75 9.55109 0.75 9.75V13.5C0.751489 14.8919 1.30509 16.2264 2.28933 17.2107C3.27358 18.1949 4.60807 18.7485 6 18.75V20.25C6 20.4489 6.07902 20.6397 6.21967 20.7803C6.36032 20.921 6.55109 21 6.75 21C6.94891 21 7.13968 20.921 7.28033 20.7803C7.42098 20.6397 7.5 20.4489 7.5 20.25V18.75H16.5V20.25C16.5 20.4489 16.579 20.6397 16.7197 20.7803C16.8603 20.921 17.0511 21 17.25 21C17.4489 21 17.6397 20.921 17.7803 20.7803C17.921 20.6397 18 20.4489 18 20.25V18.75C19.3919 18.7485 20.7264 18.1949 21.7107 17.2107C22.6949 16.2264 23.2485 14.8919 23.25 13.5V9.75C23.25 9.55109 23.171 9.36032 23.0303 9.21967C22.8897 9.07902 22.6989 9 22.5 9ZM18 9.75V12.75H13.5V9.75H18ZM21.75 13.5C21.75 13.9925 21.653 14.4801 21.4645 14.9351C21.2761 15.39 20.9999 15.8034 20.6516 16.1517C20.3034 16.4999 19.89 16.7761 19.4351 16.9645C18.9801 17.153 18.4925 17.25 18 17.25H6C5.00544 17.25 4.05161 16.8549 3.34835 16.1517C2.64509 15.4484 2.25 14.4946 2.25 13.5V10.5H12V13.5C12 13.6989 12.079 13.8897 12.2197 14.0303C12.3603 14.171 12.5511 14.25 12.75 14.25H18.75C18.9489 14.25 19.1397 14.171 19.2803 14.0303C19.421 13.8897 19.5 13.6989 19.5 13.5V10.5H21.75V13.5Z" fill="#64748B"/>
</svg>
