<?xml version="1.0" encoding="UTF-8"?>
<svg id="Layer_2" data-name="Layer 2" xmlns="http://www.w3.org/2000/svg" viewBox="0 0 1000 1000">
  <defs>
    <style>
      .cls-1 {
        fill: #000;
      }

      .cls-1, .cls-2 {
        stroke-width: 0px;
      }

      .cls-2 {
        fill: #818cf8;
      }
    </style>
  </defs>
  <g id="Layer_1-2" data-name="Layer 1">
    <g id="flat-finder-icon">
      <circle class="cls-1" cx="500" cy="500" r="500"/>
      <path class="cls-2" d="M770.81,186.37c-12.33,15.96-24.66,31.93-37,47.9-10.21,13.22-37.12-9.96-26.52-23.68,6.59-8.53,13.19-17.07,19.78-25.6-103.81-4.41-207.72,4.24-308.92,26.43-28.49,81.2-52.82,163.71-73.08,247.18,72.03-13.78,145.57-18.52,219.22-13.75,10.44.68,21.49,8.04,26.41,17.32,3.09,5.83,5.96,18.8-4.99,18.1-84.56-5.47-168.66,1.51-250.57,20.8-25.55,113.56-43.55,228.82-53.67,345.01-1.45,16.64-38.87-7.84-37.44-24.17,9.1-104.41,24.22-207.24,45.48-308.73-9.56,2.82-19.1,5.75-28.59,8.92-15.66,5.23-45.49-28.45-28.78-34.03,22.17-7.4,44.57-13.84,67.14-19.43,18.83-82.53,41.72-164.2,68.9-245.11-31.12,8.29-61.95,17.86-92.37,28.8-15.5,5.58-45.55-27.99-28.78-34.03,158.03-56.86,327.27-78.7,494.65-66.73,9.54.69,19.49,6.8,24.93,14.95,5.53,6.72,8.34,14.5,4.19,19.86Z"/>
    </g>
  </g>
</svg>