<?xml version="1.0" encoding="utf-8"?>
<!-- Generator: Adobe Illustrator 27.5.0, SVG Export Plug-In . SVG Version: 6.00 Build 0)  -->
<svg version="1.1" id="Layer_2" xmlns="http://www.w3.org/2000/svg" xmlns:xlink="http://www.w3.org/1999/xlink" x="0px" y="0px"
	 viewBox="0 0 2302.8 615.2" style="enable-background:new 0 0 2302.8 615.2;" xml:space="preserve">
<style type="text/css">
	.st0{stroke:#FFFFFF;stroke-miterlimit:10;}
</style>
<g>
	<path class="st0" d="M1.1,156h185.2v56.1H69.7v69.5h109.1v55.6H69.7v121.9H1.1V156z"/>
	<path class="st0" d="M224.7,156h68.5v245.7h120.6v57.5H224.7V156z"/>
	<path class="st0" d="M514,381.3l-21.4,77.8h-70.9L514.2,156h89.7l94.4,303.2h-73.9l-23.3-77.8H514z M591,330.3l-18.9-64.4
		c-5.2-17.9-10.6-40.6-15.2-58.4h-0.9c-4.5,17.8-9,40.8-13.9,58.5l-18.1,64.3H591z"/>
	<path class="st0" d="M746.5,213.5h-81.8V156H898v57.5h-83v245.6h-68.5V213.5z"/>
	<path class="st0" d="M925.1,156h136.4v17.8H945.9v121.3h106.5v17.8H945.9v146.2h-20.8V156z"/>
	<path class="st0" d="M1178.9,156v303.2h-20.8V156H1178.9z"/>
	<path class="st0" d="M1292.1,459.2V156h20l101.1,172.3c21.7,38,38.8,70,52.6,101.6l0.9-0.5c-3.1-45.8-3.4-79.2-3.4-127.7V156h20.1
		v303.2h-19.8l-100.4-172.9c-19.9-34.4-38.1-66.4-52.8-101.7l-1.1,0.5c2.7,40.2,2.9,73,2.9,128.4v145.7H1292.1z"/>
	<path class="st0" d="M1596.6,160.3c19.9-4,41.7-6.3,65.9-6.3c47,0,82.4,12.6,104.3,35.1c23.7,23.2,39,58.5,39,110.5
		c0,53.4-13.8,91.9-37.6,118.8c-24.3,27.6-64.9,42.9-114.9,42.9c-19.7,0-38.7-0.4-56.7-2.7V160.3z M1617.4,441.6
		c10.5,1.6,24.4,1.8,38.7,1.8c81.4,0,128.3-46.3,128.3-142.3c0.5-79.3-37.8-129.5-122.8-129.5c-18.3,0-33.3,1.8-44.2,3.9V441.6z"/>
	<path class="st0" d="M2031.2,308.5h-108.9v132.9h122.5v17.8h-143.2V156H2038v17.8h-115.7v116.9h108.9V308.5z"/>
	<path class="st0" d="M2137.7,160.3c16.6-4.3,39.3-6.3,58.2-6.3c36.1,0,59.1,8.1,75.1,24.2c13,13,20.7,33.2,20.7,54.8
		c0,41.3-22.9,66.6-56.5,79.1v0.9c24.1,7.3,38.6,30.2,45.8,67c9.5,47,15.2,68.3,20.7,79.2h-21.5c-4.7-9-10.8-35.9-18.5-74.6
		c-8.8-43.8-26.5-63.2-65.1-64.4h-38.1v139h-20.8V160.3z M2158.5,303.5h38.8c43.9,0,73.3-26.3,73.3-66.9c0-44.7-28.9-65.2-75.4-65.2
		c-16.8,0-29.7,1.6-36.7,3.5V303.5z"/>
</g>
</svg>
